STARTFONT 2.1
COMMENT Recovered from medfnb.qfasl (MIT CADR System 46 serialized QFASL FONT object)
FONT MIT-CADR-QFASL-MEDFNB
SIZE 13 72 72
FONTBOUNDINGBOX 12 13 0 -2
STARTPROPERTIES 2
FONT_ASCENT 11
FONT_DESCENT 2
ENDPROPERTIES
CHARS 128
STARTCHAR C0000
ENCODING -1 0
SWIDTH 769 0
DWIDTH 10 0
BBX 9 13 2 -2
BITMAP
0000
0000
0000
0000
0000
7000
F800
F800
7000
0000
0000
0000
0000
ENDCHAR
STARTCHAR C0001
ENCODING -1 1
SWIDTH 769 0
DWIDTH 10 0
BBX 9 13 0 -2
BITMAP
0000
1800
1800
1800
1800
1800
1800
7E00
3C00
1800
0000
0000
0000
ENDCHAR
STARTCHAR C0002
ENCODING -1 2
SWIDTH 769 0
DWIDTH 10 0
BBX 9 13 0 -2
BITMAP
0000
0000
0000
0300
7300
DE00
CC00
CC00
DE00
7380
0000
0000
0000
ENDCHAR
STARTCHAR C0003
ENCODING -1 3
SWIDTH 769 0
DWIDTH 10 0
BBX 9 13 0 -2
BITMAP
0000
1E00
3300
3300
6300
7E00
6300
6300
6300
7E00
6000
6000
6000
ENDCHAR
STARTCHAR C0004
ENCODING -1 4
SWIDTH 769 0
DWIDTH 10 0
BBX 9 13 0 -2
BITMAP
0000
0000
0000
0000
0000
1800
3C00
6600
C300
0000
0000
0000
0000
ENDCHAR
STARTCHAR C0005
ENCODING -1 5
SWIDTH 769 0
DWIDTH 10 0
BBX 9 13 0 -2
BITMAP
0000
0000
0000
0000
0000
0000
FF00
0300
0300
0000
0000
0000
0000
ENDCHAR
STARTCHAR C0006
ENCODING -1 6
SWIDTH 769 0
DWIDTH 10 0
BBX 9 13 0 -2
BITMAP
0000
0000
0000
0000
1E00
3000
6000
7E00
6000
3000
1E00
0000
0000
ENDCHAR
STARTCHAR C0007
ENCODING -1 7
SWIDTH 769 0
DWIDTH 10 0
BBX 9 13 0 -2
BITMAP
0000
0000
0000
0000
FF00
6600
6600
6600
6600
6600
6600
0000
0000
ENDCHAR
STARTCHAR C0008
ENCODING -1 8
SWIDTH 769 0
DWIDTH 10 0
BBX 9 13 0 -2
BITMAP
C000
6000
6000
3000
1800
1800
3C00
3600
6600
6300
C300
0000
0000
ENDCHAR
STARTCHAR C0009
ENCODING -1 9
SWIDTH 769 0
DWIDTH 10 0
BBX 9 13 0 -2
BITMAP
0000
0180
0300
7E00
CC00
1E00
3600
6600
6600
6C00
3800
0000
0000
ENDCHAR
STARTCHAR C000A
ENCODING -1 10
SWIDTH 769 0
DWIDTH 10 0
BBX 9 13 0 -2
BITMAP
3E00
6000
6000
6000
3000
1800
3C00
6600
C300
C300
7E00
0000
0000
ENDCHAR
STARTCHAR C000B
ENCODING -1 11
SWIDTH 769 0
DWIDTH 10 0
BBX 9 13 0 -2
BITMAP
0000
1800
3C00
7E00
1800
1800
1800
1800
1800
1800
0000
0000
0000
ENDCHAR
STARTCHAR C000C
ENCODING -1 12
SWIDTH 769 0
DWIDTH 10 0
BBX 9 13 0 -2
BITMAP
0000
0000
0000
1800
1800
1800
FF00
1800
1800
FF00
0000
0000
0000
ENDCHAR
STARTCHAR C000D
ENCODING -1 13
SWIDTH 769 0
DWIDTH 10 0
BBX 9 13 0 -2
BITMAP
0000
0000
0000
3C00
7E00
DB00
FF00
DB00
7E00
3C00
0000
0000
0000
ENDCHAR
STARTCHAR C000E
ENCODING -1 14
SWIDTH 769 0
DWIDTH 10 0
BBX 9 13 0 -2
BITMAP
0000
0000
0000
0000
6600
DB00
DB00
DB00
DB00
6600
0000
0000
0000
ENDCHAR
STARTCHAR C000F
ENCODING -1 15
SWIDTH 769 0
DWIDTH 10 0
BBX 9 13 1 -2
BITMAP
3800
6C00
0600
0600
0600
3E00
6600
C600
C600
6C00
3800
0000
0000
ENDCHAR
STARTCHAR C0010
ENCODING -1 16
SWIDTH 769 0
DWIDTH 10 0
BBX 9 13 0 -2
BITMAP
0000
0000
0000
0000
7F00
C000
C000
C000
C000
7F00
0000
0000
0000
ENDCHAR
STARTCHAR C0011
ENCODING -1 17
SWIDTH 769 0
DWIDTH 10 0
BBX 9 13 0 -2
BITMAP
0000
0000
0000
0000
FE00
0300
0300
0300
0300
FE00
0000
0000
0000
ENDCHAR
STARTCHAR C0012
ENCODING -1 18
SWIDTH 769 0
DWIDTH 10 0
BBX 9 13 1 -2
BITMAP
0000
0000
0000
7C00
C600
C600
C600
C600
C600
C600
0000
0000
0000
ENDCHAR
STARTCHAR C0013
ENCODING -1 19
SWIDTH 769 0
DWIDTH 10 0
BBX 9 13 1 -2
BITMAP
0000
0000
0000
C600
C600
C600
C600
C600
C600
7C00
0000
0000
0000
ENDCHAR
STARTCHAR C0014
ENCODING -1 20
SWIDTH 769 0
DWIDTH 10 0
BBX 9 13 0 -2
BITMAP
C300
C300
C300
7E00
6600
6600
3C00
3C00
3C00
1800
1800
0000
0000
ENDCHAR
STARTCHAR C0015
ENCODING -1 21
SWIDTH 769 0
DWIDTH 10 0
BBX 9 13 0 -2
BITMAP
FF00
0300
0300
0300
0300
7F00
0300
0300
0300
0300
FF00
0000
0000
ENDCHAR
STARTCHAR C0016
ENCODING -1 22
SWIDTH 769 0
DWIDTH 10 0
BBX 9 13 0 -2
BITMAP
0000
0000
0000
3C00
6600
FF00
DB00
FF00
6600
3C00
0000
0000
0000
ENDCHAR
STARTCHAR C0017
ENCODING -1 23
SWIDTH 769 0
DWIDTH 10 0
BBX 9 13 0 -2
BITMAP
0000
0000
0000
0000
3600
6300
FF80
6300
3600
0000
0000
0000
0000
ENDCHAR
STARTCHAR C0018
ENCODING -1 24
SWIDTH 769 0
DWIDTH 10 0
BBX 9 13 0 -2
BITMAP
0000
0000
0000
0000
3000
6000
FF00
6000
3000
0000
0000
0000
0000
ENDCHAR
STARTCHAR C0019
ENCODING -1 25
SWIDTH 769 0
DWIDTH 10 0
BBX 9 13 0 -2
BITMAP
0000
0000
0000
0000
0C00
0600
FF00
0600
0C00
0000
0000
0000
0000
ENDCHAR
STARTCHAR C001A
ENCODING -1 26
SWIDTH 769 0
DWIDTH 10 0
BBX 9 13 0 -2
BITMAP
0000
0000
0600
0600
0C00
FF00
1800
3000
FF00
6000
C000
0000
0000
ENDCHAR
STARTCHAR C001B
ENCODING -1 27
SWIDTH 769 0
DWIDTH 10 0
BBX 9 13 0 -2
BITMAP
0000
1800
1800
3C00
6600
C300
6600
3C00
1800
1800
0000
0000
0000
ENDCHAR
STARTCHAR C001C
ENCODING -1 28
SWIDTH 769 0
DWIDTH 10 0
BBX 9 13 0 -2
BITMAP
0000
0000
0000
0700
1C00
7000
C000
7000
1C00
0700
FF00
0000
0000
ENDCHAR
STARTCHAR C001D
ENCODING -1 29
SWIDTH 769 0
DWIDTH 10 0
BBX 9 13 0 -2
BITMAP
0000
0000
0000
E000
3800
0E00
0300
0E00
3800
E000
FF00
0000
0000
ENDCHAR
STARTCHAR C001E
ENCODING -1 30
SWIDTH 769 0
DWIDTH 10 0
BBX 9 13 0 -2
BITMAP
0000
0000
0000
0000
FF00
0000
FF00
0000
FF00
0000
0000
0000
0000
ENDCHAR
STARTCHAR C001F
ENCODING -1 31
SWIDTH 769 0
DWIDTH 10 0
BBX 9 13 0 -2
BITMAP
0000
0000
0000
0000
0000
C300
6600
3C00
1800
0000
0000
0000
0000
ENDCHAR
STARTCHAR C0020
ENCODING -1 32
SWIDTH 769 0
DWIDTH 10 0
BBX 9 13 0 -2
BITMAP
0000
0000
0000
0000
0000
0000
0000
0000
0000
0000
0000
0000
0000
ENDCHAR
STARTCHAR C0021
ENCODING -1 33
SWIDTH 769 0
DWIDTH 10 0
BBX 9 13 0 -2
BITMAP
1800
1800
1800
1800
1800
1800
1800
0000
0000
1800
1800
0000
0000
ENDCHAR
STARTCHAR C0022
ENCODING -1 34
SWIDTH 769 0
DWIDTH 10 0
BBX 9 13 2 -2
BITMAP
D800
D800
D800
D800
0000
0000
0000
0000
0000
0000
0000
0000
0000
ENDCHAR
STARTCHAR C0023
ENCODING -1 35
SWIDTH 769 0
DWIDTH 10 0
BBX 9 13 0 -2
BITMAP
0000
0000
6600
6600
FF00
6600
6600
FF00
6600
6600
0000
0000
0000
ENDCHAR
STARTCHAR C0024
ENCODING -1 36
SWIDTH 769 0
DWIDTH 10 0
BBX 9 13 0 -2
BITMAP
1800
7E00
FF00
D800
F800
7E00
1F00
1B00
FF00
7E00
1800
0000
0000
ENDCHAR
STARTCHAR C0025
ENCODING -1 37
SWIDTH 769 0
DWIDTH 10 0
BBX 9 13 0 -2
BITMAP
7000
D800
DB00
7600
0C00
1800
3000
6E00
DB00
1B00
0E00
0000
0000
ENDCHAR
STARTCHAR C0026
ENCODING -1 38
SWIDTH 769 0
DWIDTH 10 0
BBX 9 13 0 -2
BITMAP
3800
6C00
CC00
CC00
D800
7000
7000
D800
CD00
C600
7D00
0000
0000
ENDCHAR
STARTCHAR C0027
ENCODING -1 39
SWIDTH 769 0
DWIDTH 10 0
BBX 9 13 2 -2
BITMAP
3800
7000
E000
0000
0000
0000
0000
0000
0000
0000
0000
0000
0000
ENDCHAR
STARTCHAR C0028
ENCODING -1 40
SWIDTH 769 0
DWIDTH 10 0
BBX 9 13 0 -2
BITMAP
0C00
1800
3000
3000
3000
3000
3000
3000
3000
1800
0C00
0000
0000
ENDCHAR
STARTCHAR C0029
ENCODING -1 41
SWIDTH 769 0
DWIDTH 10 0
BBX 9 13 0 -2
BITMAP
3000
1800
0C00
0C00
0C00
0C00
0C00
0C00
0C00
1800
3000
0000
0000
ENDCHAR
STARTCHAR C002A
ENCODING -1 42
SWIDTH 769 0
DWIDTH 10 0
BBX 9 13 0 -2
BITMAP
0000
0000
0000
6600
6600
3C00
FF00
3C00
6600
6600
0000
0000
0000
ENDCHAR
STARTCHAR C002B
ENCODING -1 43
SWIDTH 769 0
DWIDTH 10 0
BBX 9 13 0 -2
BITMAP
0000
0000
0000
1800
1800
1800
FF00
1800
1800
1800
0000
0000
0000
ENDCHAR
STARTCHAR C002C
ENCODING -1 44
SWIDTH 769 0
DWIDTH 10 0
BBX 9 13 2 -2
BITMAP
0000
0000
0000
0000
0000
0000
0000
0000
0000
7000
7000
6000
C000
ENDCHAR
STARTCHAR C002D
ENCODING -1 45
SWIDTH 769 0
DWIDTH 10 0
BBX 9 13 0 -2
BITMAP
0000
0000
0000
0000
0000
0000
FF00
0000
0000
0000
0000
0000
0000
ENDCHAR
STARTCHAR C002E
ENCODING -1 46
SWIDTH 769 0
DWIDTH 10 0
BBX 9 13 3 -2
BITMAP
0000
0000
0000
0000
0000
0000
0000
0000
0000
E000
E000
0000
0000
ENDCHAR
STARTCHAR C002F
ENCODING -1 47
SWIDTH 769 0
DWIDTH 10 0
BBX 9 13 0 -2
BITMAP
0300
0300
0600
0600
0C00
0C00
1800
1800
3000
3000
6000
6000
0000
ENDCHAR
STARTCHAR C0030
ENCODING -1 48
SWIDTH 769 0
DWIDTH 10 0
BBX 9 13 0 -2
BITMAP
3C00
6600
C300
C700
CF00
DB00
F300
E300
C300
6600
3C00
0000
0000
ENDCHAR
STARTCHAR C0031
ENCODING -1 49
SWIDTH 769 0
DWIDTH 10 0
BBX 9 13 0 -2
BITMAP
1800
3800
7800
1800
1800
1800
1800
1800
1800
1800
7E00
0000
0000
ENDCHAR
STARTCHAR C0032
ENCODING -1 50
SWIDTH 769 0
DWIDTH 10 0
BBX 9 13 0 -2
BITMAP
7E00
C300
0300
0300
0600
3C00
6000
C000
C000
C000
FF00
0000
0000
ENDCHAR
STARTCHAR C0033
ENCODING -1 51
SWIDTH 769 0
DWIDTH 10 0
BBX 9 13 0 -2
BITMAP
7E00
C300
0300
0300
0300
7E00
0300
0300
0300
C300
7E00
0000
0000
ENDCHAR
STARTCHAR C0034
ENCODING -1 52
SWIDTH 769 0
DWIDTH 10 0
BBX 9 13 0 -2
BITMAP
0C00
1C00
3C00
6C00
CC00
FF00
0C00
0C00
0C00
0C00
0C00
0000
0000
ENDCHAR
STARTCHAR C0035
ENCODING -1 53
SWIDTH 769 0
DWIDTH 10 0
BBX 9 13 0 -2
BITMAP
FF00
C000
C000
C000
C000
FE00
0300
0300
0300
C300
7E00
0000
0000
ENDCHAR
STARTCHAR C0036
ENCODING -1 54
SWIDTH 769 0
DWIDTH 10 0
BBX 9 13 0 -2
BITMAP
3E00
6000
C000
C000
C000
FE00
C300
C300
C300
C300
7E00
0000
0000
ENDCHAR
STARTCHAR C0037
ENCODING -1 55
SWIDTH 769 0
DWIDTH 10 0
BBX 9 13 0 -2
BITMAP
FF00
0300
0300
0300
0600
7F00
1800
3000
3000
3000
3000
0000
0000
ENDCHAR
STARTCHAR C0038
ENCODING -1 56
SWIDTH 769 0
DWIDTH 10 0
BBX 9 13 0 -2
BITMAP
7E00
C300
C300
C300
C300
7E00
C300
C300
C300
C300
7E00
0000
0000
ENDCHAR
STARTCHAR C0039
ENCODING -1 57
SWIDTH 769 0
DWIDTH 10 0
BBX 9 13 0 -2
BITMAP
7E00
C300
C300
C300
C300
7F00
0300
0300
0300
0600
3C00
0000
0000
ENDCHAR
STARTCHAR C003A
ENCODING -1 58
SWIDTH 769 0
DWIDTH 10 0
BBX 9 13 3 -2
BITMAP
0000
0000
0000
0000
0000
E000
E000
0000
0000
E000
E000
0000
0000
ENDCHAR
STARTCHAR C003B
ENCODING -1 59
SWIDTH 769 0
DWIDTH 10 0
BBX 9 13 2 -2
BITMAP
0000
0000
0000
0000
0000
7000
7000
0000
0000
7000
7000
6000
C000
ENDCHAR
STARTCHAR C003C
ENCODING -1 60
SWIDTH 769 0
DWIDTH 10 0
BBX 9 13 0 -2
BITMAP
0000
0000
0300
0E00
1800
7000
C000
7000
1800
0E00
0300
0000
0000
ENDCHAR
STARTCHAR C003D
ENCODING -1 61
SWIDTH 769 0
DWIDTH 10 0
BBX 9 13 0 -2
BITMAP
0000
0000
0000
0000
0000
FF00
0000
0000
FF00
0000
0000
0000
0000
ENDCHAR
STARTCHAR C003E
ENCODING -1 62
SWIDTH 769 0
DWIDTH 10 0
BBX 9 13 0 -2
BITMAP
0000
0000
C000
7000
1800
0E00
0300
0E00
1800
7000
C000
0000
0000
ENDCHAR
STARTCHAR C003F
ENCODING -1 63
SWIDTH 769 0
DWIDTH 10 0
BBX 9 13 0 -2
BITMAP
7E00
C300
C300
0300
0600
0C00
1800
1800
0000
0000
1800
0000
0000
ENDCHAR
STARTCHAR C0040
ENCODING -1 64
SWIDTH 769 0
DWIDTH 10 0
BBX 9 13 0 -2
BITMAP
0000
0000
0000
7E00
C300
DF00
D300
D300
DF00
C000
7F00
0000
0000
ENDCHAR
STARTCHAR C0041
ENCODING -1 65
SWIDTH 769 0
DWIDTH 10 0
BBX 9 13 0 -2
BITMAP
7E00
C300
C300
C300
C300
FF00
C300
C300
C300
C300
C300
0000
0000
ENDCHAR
STARTCHAR C0042
ENCODING -1 66
SWIDTH 769 0
DWIDTH 10 0
BBX 9 13 0 -2
BITMAP
FE00
C300
C300
C300
C300
FE00
C300
C300
C300
C300
FE00
0000
0000
ENDCHAR
STARTCHAR C0043
ENCODING -1 67
SWIDTH 769 0
DWIDTH 10 0
BBX 9 13 0 -2
BITMAP
7E00
C300
C000
C000
C000
C000
C000
C000
C000
C300
7E00
0000
0000
ENDCHAR
STARTCHAR C0044
ENCODING -1 68
SWIDTH 769 0
DWIDTH 10 0
BBX 9 13 0 -2
BITMAP
FC00
C600
C300
C300
C300
C300
C300
C300
C300
C600
FC00
0000
0000
ENDCHAR
STARTCHAR C0045
ENCODING -1 69
SWIDTH 769 0
DWIDTH 10 0
BBX 9 13 0 -2
BITMAP
FF00
C000
C000
C000
C000
FC00
C000
C000
C000
C000
FF00
0000
0000
ENDCHAR
STARTCHAR C0046
ENCODING -1 70
SWIDTH 769 0
DWIDTH 10 0
BBX 9 13 0 -2
BITMAP
FF00
C000
C000
C000
C000
FC00
C000
C000
C000
C000
C000
0000
0000
ENDCHAR
STARTCHAR C0047
ENCODING -1 71
SWIDTH 769 0
DWIDTH 10 0
BBX 9 13 0 -2
BITMAP
7E00
C300
C000
C000
C000
C000
CF00
C300
C300
C300
7E00
0000
0000
ENDCHAR
STARTCHAR C0048
ENCODING -1 72
SWIDTH 769 0
DWIDTH 10 0
BBX 9 13 0 -2
BITMAP
C300
C300
C300
C300
C300
FF00
C300
C300
C300
C300
C300
0000
0000
ENDCHAR
STARTCHAR C0049
ENCODING -1 73
SWIDTH 769 0
DWIDTH 10 0
BBX 9 13 0 -2
BITMAP
7E00
1800
1800
1800
1800
1800
1800
1800
1800
1800
7E00
0000
0000
ENDCHAR
STARTCHAR C004A
ENCODING -1 74
SWIDTH 769 0
DWIDTH 10 0
BBX 9 13 0 -2
BITMAP
0600
0600
0600
0600
0600
0600
0600
0600
C600
C600
7C00
0000
0000
ENDCHAR
STARTCHAR C004B
ENCODING -1 75
SWIDTH 769 0
DWIDTH 10 0
BBX 9 13 0 -2
BITMAP
C300
C600
CC00
D800
F000
E000
F000
D800
CC00
C600
C300
0000
0000
ENDCHAR
STARTCHAR C004C
ENCODING -1 76
SWIDTH 769 0
DWIDTH 10 0
BBX 9 13 0 -2
BITMAP
C000
C000
C000
C000
C000
C000
C000
C000
C000
C000
FF00
0000
0000
ENDCHAR
STARTCHAR C004D
ENCODING -1 77
SWIDTH 769 0
DWIDTH 10 0
BBX 9 13 0 -2
BITMAP
C300
E700
FF00
DB00
DB00
DB00
C300
C300
C300
C300
C300
0000
0000
ENDCHAR
STARTCHAR C004E
ENCODING -1 78
SWIDTH 769 0
DWIDTH 10 0
BBX 9 13 0 -2
BITMAP
C300
E300
F300
DB00
CF00
C700
C300
C300
C300
C300
C300
0000
0000
ENDCHAR
STARTCHAR C004F
ENCODING -1 79
SWIDTH 769 0
DWIDTH 10 0
BBX 9 13 0 -2
BITMAP
7E00
C300
C300
C300
C300
C300
C300
C300
C300
C300
7E00
0000
0000
ENDCHAR
STARTCHAR C0050
ENCODING -1 80
SWIDTH 769 0
DWIDTH 10 0
BBX 9 13 0 -2
BITMAP
FE00
C300
C300
C300
C300
FE00
C000
C000
C000
C000
C000
0000
0000
ENDCHAR
STARTCHAR C0051
ENCODING -1 81
SWIDTH 769 0
DWIDTH 10 0
BBX 9 13 0 -2
BITMAP
7E00
C300
C300
C300
C300
C300
C300
DB00
CF00
C600
7F00
0000
0000
ENDCHAR
STARTCHAR C0052
ENCODING -1 82
SWIDTH 769 0
DWIDTH 10 0
BBX 9 13 0 -2
BITMAP
FE00
C300
C300
C300
C300
FE00
F000
D800
CC00
C600
C300
0000
0000
ENDCHAR
STARTCHAR C0053
ENCODING -1 83
SWIDTH 769 0
DWIDTH 10 0
BBX 9 13 0 -2
BITMAP
7E00
C300
C000
C000
C000
7E00
0300
0300
0300
C300
7E00
0000
0000
ENDCHAR
STARTCHAR C0054
ENCODING -1 84
SWIDTH 769 0
DWIDTH 10 0
BBX 9 13 0 -2
BITMAP
FF00
1800
1800
1800
1800
1800
1800
1800
1800
1800
1800
0000
0000
ENDCHAR
STARTCHAR C0055
ENCODING -1 85
SWIDTH 769 0
DWIDTH 10 0
BBX 9 13 0 -2
BITMAP
C300
C300
C300
C300
C300
C300
C300
C300
C300
C300
7E00
0000
0000
ENDCHAR
STARTCHAR C0056
ENCODING -1 86
SWIDTH 769 0
DWIDTH 10 0
BBX 9 13 0 -2
BITMAP
C300
C300
C300
C300
C300
C300
6600
6600
3C00
3C00
1800
0000
0000
ENDCHAR
STARTCHAR C0057
ENCODING -1 87
SWIDTH 769 0
DWIDTH 10 0
BBX 9 13 0 -2
BITMAP
C300
C300
C300
C300
C300
DB00
DB00
FF00
FF00
E700
C300
0000
0000
ENDCHAR
STARTCHAR C0058
ENCODING -1 88
SWIDTH 769 0
DWIDTH 10 0
BBX 9 13 0 -2
BITMAP
C300
6600
6600
3C00
3C00
1800
3C00
3C00
6600
6600
C300
0000
0000
ENDCHAR
STARTCHAR C0059
ENCODING -1 89
SWIDTH 769 0
DWIDTH 10 0
BBX 9 13 0 -2
BITMAP
C300
6600
6600
3C00
3C00
1800
1800
1800
1800
1800
1800
0000
0000
ENDCHAR
STARTCHAR C005A
ENCODING -1 90
SWIDTH 769 0
DWIDTH 10 0
BBX 9 13 0 -2
BITMAP
FF00
0300
0300
0600
0C00
7E00
3000
6000
C000
C000
FF00
0000
0000
ENDCHAR
STARTCHAR C005B
ENCODING -1 91
SWIDTH 769 0
DWIDTH 10 0
BBX 9 13 0 -2
BITMAP
3C00
3000
3000
3000
3000
3000
3000
3000
3000
3000
3C00
0000
0000
ENDCHAR
STARTCHAR C005C
ENCODING -1 92
SWIDTH 769 0
DWIDTH 10 0
BBX 9 13 0 -2
BITMAP
6000
6000
3000
3000
1800
1800
0C00
0C00
0600
0600
0300
0300
0000
ENDCHAR
STARTCHAR C005D
ENCODING -1 93
SWIDTH 769 0
DWIDTH 10 0
BBX 9 13 0 -2
BITMAP
3C00
0C00
0C00
0C00
0C00
0C00
0C00
0C00
0C00
0C00
3C00
0000
0000
ENDCHAR
STARTCHAR C005E
ENCODING -1 94
SWIDTH 769 0
DWIDTH 10 0
BBX 9 13 0 -2
BITMAP
1800
3C00
6600
C300
0000
0000
0000
0000
0000
0000
0000
0000
0000
ENDCHAR
STARTCHAR C005F
ENCODING -1 95
SWIDTH 769 0
DWIDTH 10 0
BBX 9 13 0 -2
BITMAP
0000
0000
0000
0000
0000
0000
0000
0000
0000
0000
0000
0000
FF00
ENDCHAR
STARTCHAR C0060
ENCODING -1 96
SWIDTH 769 0
DWIDTH 10 0
BBX 9 13 2 -2
BITMAP
E000
7000
3800
0000
0000
0000
0000
0000
0000
0000
0000
0000
0000
ENDCHAR
STARTCHAR C0061
ENCODING -1 97
SWIDTH 769 0
DWIDTH 10 0
BBX 9 13 0 -2
BITMAP
0000
0000
0000
0000
7E00
C300
0300
7F00
C300
C300
7F00
0000
0000
ENDCHAR
STARTCHAR C0062
ENCODING -1 98
SWIDTH 769 0
DWIDTH 10 0
BBX 9 13 0 -2
BITMAP
C000
C000
C000
C000
FE00
C300
C300
C300
C300
C300
FE00
0000
0000
ENDCHAR
STARTCHAR C0063
ENCODING -1 99
SWIDTH 769 0
DWIDTH 10 0
BBX 9 13 0 -2
BITMAP
0000
0000
0000
0000
7E00
C300
C000
C000
C000
C300
7E00
0000
0000
ENDCHAR
STARTCHAR C0064
ENCODING -1 100
SWIDTH 769 0
DWIDTH 10 0
BBX 9 13 0 -2
BITMAP
0300
0300
0300
0300
7F00
C300
C300
C300
C300
C300
7F00
0000
0000
ENDCHAR
STARTCHAR C0065
ENCODING -1 101
SWIDTH 769 0
DWIDTH 10 0
BBX 9 13 0 -2
BITMAP
0000
0000
0000
0000
7E00
C300
C300
FE00
C000
C000
7F00
0000
0000
ENDCHAR
STARTCHAR C0066
ENCODING -1 102
SWIDTH 769 0
DWIDTH 10 0
BBX 9 13 0 -2
BITMAP
1E00
3300
3000
3000
FC00
3000
3000
3000
3000
3000
3000
0000
0000
ENDCHAR
STARTCHAR C0067
ENCODING -1 103
SWIDTH 769 0
DWIDTH 10 0
BBX 9 13 0 -2
BITMAP
0000
0000
0000
0000
7E00
C300
C300
C300
7F00
0300
0300
C300
7E00
ENDCHAR
STARTCHAR C0068
ENCODING -1 104
SWIDTH 769 0
DWIDTH 10 0
BBX 9 13 0 -2
BITMAP
C000
C000
C000
C000
FE00
C300
C300
C300
C300
C300
C300
0000
0000
ENDCHAR
STARTCHAR C0069
ENCODING -1 105
SWIDTH 769 0
DWIDTH 10 0
BBX 9 13 0 -2
BITMAP
0000
1800
0000
0000
1800
1800
1800
1800
1800
1800
1800
0000
0000
ENDCHAR
STARTCHAR C006A
ENCODING -1 106
SWIDTH 769 0
DWIDTH 10 0
BBX 9 13 0 -2
BITMAP
0000
0C00
0000
0000
0C00
0C00
0C00
0C00
0C00
0C00
0C00
6C00
3800
ENDCHAR
STARTCHAR C006B
ENCODING -1 107
SWIDTH 769 0
DWIDTH 10 0
BBX 9 13 0 -2
BITMAP
C000
C000
C000
C000
C600
CC00
D800
F000
F800
CC00
C600
0000
0000
ENDCHAR
STARTCHAR C006C
ENCODING -1 108
SWIDTH 769 0
DWIDTH 10 0
BBX 9 13 0 -2
BITMAP
7800
1800
1800
1800
1800
1800
1800
1800
1800
1800
7E00
0000
0000
ENDCHAR
STARTCHAR C006D
ENCODING -1 109
SWIDTH 769 0
DWIDTH 10 0
BBX 9 13 0 -2
BITMAP
0000
0000
0000
0000
FE00
DB00
DB00
DB00
DB00
DB00
DB00
0000
0000
ENDCHAR
STARTCHAR C006E
ENCODING -1 110
SWIDTH 769 0
DWIDTH 10 0
BBX 9 13 0 -2
BITMAP
0000
0000
0000
0000
FC00
C600
C600
C600
C600
C600
C600
0000
0000
ENDCHAR
STARTCHAR C006F
ENCODING -1 111
SWIDTH 769 0
DWIDTH 10 0
BBX 9 13 0 -2
BITMAP
0000
0000
0000
0000
7C00
C600
C600
C600
C600
C600
7C00
0000
0000
ENDCHAR
STARTCHAR C0070
ENCODING -1 112
SWIDTH 769 0
DWIDTH 10 0
BBX 9 13 0 -2
BITMAP
0000
0000
0000
0000
FE00
C300
C300
C300
C300
C300
FE00
C000
C000
ENDCHAR
STARTCHAR C0071
ENCODING -1 113
SWIDTH 769 0
DWIDTH 10 0
BBX 9 13 0 -2
BITMAP
0000
0000
0000
0000
7F00
C300
C300
C300
C300
C300
7F00
0300
0300
ENDCHAR
STARTCHAR C0072
ENCODING -1 114
SWIDTH 769 0
DWIDTH 10 0
BBX 9 13 0 -2
BITMAP
0000
0000
0000
0000
FE00
E000
C000
C000
C000
C000
C000
0000
0000
ENDCHAR
STARTCHAR C0073
ENCODING -1 115
SWIDTH 769 0
DWIDTH 10 0
BBX 9 13 0 -2
BITMAP
0000
0000
0000
0000
7F00
C000
C000
7E00
0300
0300
FE00
0000
0000
ENDCHAR
STARTCHAR C0074
ENCODING -1 116
SWIDTH 769 0
DWIDTH 10 0
BBX 9 13 0 -2
BITMAP
0000
3000
3000
3000
FC00
3000
3000
3000
3000
3600
1C00
0000
0000
ENDCHAR
STARTCHAR C0075
ENCODING -1 117
SWIDTH 769 0
DWIDTH 10 0
BBX 9 13 0 -2
BITMAP
0000
0000
0000
0000
C600
C600
C600
C600
C600
C600
7E00
0000
0000
ENDCHAR
STARTCHAR C0076
ENCODING -1 118
SWIDTH 769 0
DWIDTH 10 0
BBX 9 13 0 -2
BITMAP
0000
0000
0000
0000
C300
C300
6600
6600
3C00
3C00
1800
0000
0000
ENDCHAR
STARTCHAR C0077
ENCODING -1 119
SWIDTH 769 0
DWIDTH 10 0
BBX 9 13 0 -2
BITMAP
0000
0000
0000
0000
C300
C300
C300
DB00
FF00
E700
C300
0000
0000
ENDCHAR
STARTCHAR C0078
ENCODING -1 120
SWIDTH 769 0
DWIDTH 10 0
BBX 9 13 0 -2
BITMAP
0000
0000
0000
0000
C300
6600
3C00
1800
3C00
6600
C300
0000
0000
ENDCHAR
STARTCHAR C0079
ENCODING -1 121
SWIDTH 769 0
DWIDTH 10 0
BBX 9 13 0 -2
BITMAP
0000
0000
0000
0000
C300
C300
C300
6600
3C00
1800
3000
6000
C000
ENDCHAR
STARTCHAR C007A
ENCODING -1 122
SWIDTH 769 0
DWIDTH 10 0
BBX 9 13 0 -2
BITMAP
0000
0000
0000
0000
FF00
0600
0C00
1800
3000
6000
FF00
0000
0000
ENDCHAR
STARTCHAR C007B
ENCODING -1 123
SWIDTH 769 0
DWIDTH 10 0
BBX 9 13 0 -2
BITMAP
0F00
1800
1800
1800
3800
F000
3800
1800
1800
1800
0F00
0000
0000
ENDCHAR
STARTCHAR C007C
ENCODING -1 124
SWIDTH 769 0
DWIDTH 10 0
BBX 9 13 0 -2
BITMAP
1800
1800
1800
1800
1800
1800
1800
1800
1800
1800
1800
1800
1800
ENDCHAR
STARTCHAR C007D
ENCODING -1 125
SWIDTH 769 0
DWIDTH 10 0
BBX 9 13 0 -2
BITMAP
F000
1800
1800
1800
1C00
0F00
1C00
1800
1800
1800
F000
0000
0000
ENDCHAR
STARTCHAR C007E
ENCODING -1 126
SWIDTH 769 0
DWIDTH 10 0
BBX 9 13 0 -2
BITMAP
0000
7600
DC00
0000
0000
0000
0000
0000
0000
0000
0000
0000
0000
ENDCHAR
STARTCHAR C007F
ENCODING -1 127
SWIDTH 769 0
DWIDTH 10 0
BBX 9 13 1 -2
BITMAP
0E00
1B00
1800
1800
1800
1800
1800
1800
1800
D800
7000
0000
0000
ENDCHAR
ENDFONT
